<svg width="12" height="10" viewBox="0 0 12 10" fill="none" xmlns="http://www.w3.org/2000/svg">
<path d="M6.5265 0.325714C6.534 0.337714 6.537 0.353713 6.5445 0.365713L11.7806 8.07971C12.0731 8.51371 12.0731 9.21771 11.7806 9.65171C11.7776 9.65571 11.7746 9.65771 11.7716 9.65971C11.7066 9.7648 11.6251 9.84968 11.5328 9.9084C11.4406 9.96713 11.3399 9.99829 11.2377 9.99971H0.763898C0.659823 9.99747 0.557387 9.96478 0.463826 9.90396C0.370265 9.84314 0.287861 9.75566 0.222435 9.64771L0.219435 9.65171C0.0778902 9.43334 0 9.15435 0 8.86571C0 8.57708 0.0778902 8.29809 0.219435 8.07971L5.46757 0.325714C5.53291 0.223593 5.61408 0.141587 5.70549 0.0853539C5.7969 0.029121 5.89637 0 5.99704 0C6.09771 0 6.19718 0.029121 6.28858 0.0853539C6.37999 0.141587 6.46117 0.223593 6.5265 0.325714Z" fill="#A0A0A0"/>
</svg>
