<svg width="12" height="10" viewBox="0 0 12 10" fill="none" xmlns="http://www.w3.org/2000/svg">
<path d="M6.5265 9.67415C6.534 9.66215 6.537 9.64615 6.5445 9.63415L11.7806 1.92015C12.0731 1.48615 12.0731 0.782152 11.7806 0.348152C11.7776 0.344152 11.7746 0.342153 11.7716 0.340153C11.7066 0.235063 11.6251 0.15019 11.5328 0.0914631C11.4406 0.0327366 11.3399 0.00157398 11.2377 0.000152588H0.763898C0.659823 0.00239502 0.557387 0.035082 0.463826 0.0959053C0.370265 0.156729 0.287861 0.244205 0.222435 0.352153L0.219435 0.348152C0.0778902 0.566524 0 0.84552 0 1.13415C0 1.42279 0.0778902 1.70178 0.219435 1.92015L5.46757 9.67415C5.53291 9.77627 5.61408 9.85828 5.70549 9.91451C5.7969 9.97075 5.89637 9.99987 5.99704 9.99987C6.09771 9.99987 6.19718 9.97075 6.28858 9.91451C6.37999 9.85828 6.46117 9.77627 6.5265 9.67415Z" fill="#A0A0A0"/>
</svg>
