<svg width="110" height="138" viewBox="0 0 110 138" fill="none" xmlns="http://www.w3.org/2000/svg">
<rect x="0.5" y="0.5" width="109" height="137" rx="4.5" fill="#1E1E1E"/>
<rect x="0.5" y="0.5" width="109" height="137" rx="4.5" stroke="#444444"/>
<path d="M69 49H41C39.4087 49 37.8826 49.6321 36.7574 50.7574C35.6321 51.8826 35 53.4087 35 55V83C35 84.5913 35.6321 86.1174 36.7574 87.2426C37.8826 88.3679 39.4087 89 41 89H69C69.329 88.9954 69.6569 88.962 69.98 88.9L70.58 88.76H70.72H70.82L71.56 88.48L71.82 88.34C72.02 88.22 72.24 88.12 72.44 87.98C72.7071 87.7835 72.9609 87.5697 73.2 87.34L73.34 87.16C73.5364 86.961 73.7169 86.747 73.88 86.52L74.06 86.26C74.1997 86.0373 74.3201 85.8032 74.42 85.56C74.4749 85.464 74.5217 85.3637 74.56 85.26C74.66 85.02 74.72 84.76 74.8 84.5V84.2C74.9134 83.8092 74.9805 83.4064 75 83V55C75 53.4087 74.3679 51.8826 73.2426 50.7574C72.1174 49.6321 70.5913 49 69 49ZM41 85C40.4696 85 39.9609 84.7893 39.5858 84.4142C39.2107 84.0391 39 83.5304 39 83V74.38L45.58 67.78C45.7659 67.5925 45.9871 67.4438 46.2308 67.3422C46.4746 67.2407 46.736 67.1884 47 67.1884C47.264 67.1884 47.5254 67.2407 47.7692 67.3422C48.0129 67.4438 48.2341 67.5925 48.42 67.78L65.62 85H41ZM71 83C70.9981 83.2466 70.9507 83.4907 70.86 83.72C70.8143 83.8175 70.7608 83.9111 70.7 84C70.6465 84.0847 70.5863 84.1649 70.52 84.24L59.82 73.54L61.58 71.78C61.7659 71.5925 61.9871 71.4438 62.2308 71.3422C62.4746 71.2407 62.736 71.1884 63 71.1884C63.264 71.1884 63.5254 71.2407 63.7692 71.3422C64.0129 71.4438 64.2341 71.5925 64.42 71.78L71 78.38V83ZM71 72.72L67.24 69C66.0954 67.914 64.5778 67.3086 63 67.3086C61.4222 67.3086 59.9046 67.914 58.76 69L57 70.76L51.24 65C50.0954 63.914 48.5778 63.3086 47 63.3086C45.4222 63.3086 43.9046 63.914 42.76 65L39 68.72V55C39 54.4696 39.2107 53.9609 39.5858 53.5858C39.9609 53.2107 40.4696 53 41 53H69C69.5304 53 70.0391 53.2107 70.4142 53.5858C70.7893 53.9609 71 54.4696 71 55V72.72Z" fill="#444444"/>
<g clip-path="url(#clip0_60_619)">
<path d="M72.5 61.125C77.2635 61.125 81.125 57.2635 81.125 52.5C81.125 47.7365 77.2635 43.875 72.5 43.875C67.7365 43.875 63.875 47.7365 63.875 52.5C63.875 57.2635 67.7365 61.125 72.5 61.125Z" stroke="#3FFF62" stroke-width="1.4375" stroke-linecap="round" stroke-linejoin="round"/>
<path d="M72.5 58.25C73.0954 58.25 73.5781 57.7673 73.5781 57.1719C73.5781 56.5764 73.0954 56.0938 72.5 56.0938C71.9046 56.0938 71.4219 56.5764 71.4219 57.1719C71.4219 57.7673 71.9046 58.25 72.5 58.25Z" fill="#3FFF62"/>
<path d="M72.5 53.9379V53.2191C72.9975 53.2191 73.4839 53.0716 73.8976 52.7952C74.3113 52.5187 74.6337 52.1259 74.8241 51.6662C75.0145 51.2065 75.0644 50.7007 74.9673 50.2127C74.8702 49.7247 74.6306 49.2765 74.2788 48.9247C73.927 48.5729 73.4788 48.3333 72.9908 48.2362C72.5028 48.1391 71.997 48.189 71.5373 48.3794C71.0776 48.5698 70.6848 48.8922 70.4083 49.3059C70.1319 49.7196 69.9844 50.2059 69.9844 50.7035" stroke="#3FFF62" stroke-width="1.4375" stroke-linecap="round" stroke-linejoin="round"/>
</g>
<defs>
<clipPath id="clip0_60_619">
<rect width="23" height="23" fill="white" transform="translate(61 41)"/>
</clipPath>
</defs>
</svg>
