<svg width="50" height="50" viewBox="0 0 50 50" fill="none" xmlns="http://www.w3.org/2000/svg">
<rect width="50" height="50" fill="#1E1E1E"/>
<path d="M39 5H11C9.4087 5 7.88258 5.63214 6.75736 6.75736C5.63214 7.88258 5 9.4087 5 11V39C5 40.5913 5.63214 42.1174 6.75736 43.2426C7.88258 44.3679 9.4087 45 11 45H39C39.329 44.9954 39.6569 44.962 39.98 44.9L40.58 44.76H40.72H40.82L41.56 44.48L41.82 44.34C42.02 44.22 42.24 44.12 42.44 43.98C42.7071 43.7835 42.9609 43.5697 43.2 43.34L43.34 43.16C43.5364 42.961 43.7169 42.747 43.88 42.52L44.06 42.26C44.1997 42.0373 44.3201 41.8032 44.42 41.56C44.4749 41.464 44.5217 41.3637 44.56 41.26C44.66 41.02 44.72 40.76 44.8 40.5V40.2C44.9134 39.8092 44.9805 39.4064 45 39V11C45 9.4087 44.3679 7.88258 43.2426 6.75736C42.1174 5.63214 40.5913 5 39 5ZM11 41C10.4696 41 9.96086 40.7893 9.58579 40.4142C9.21071 40.0391 9 39.5304 9 39V30.38L15.58 23.78C15.7659 23.5925 15.9871 23.4438 16.2308 23.3422C16.4746 23.2407 16.736 23.1884 17 23.1884C17.264 23.1884 17.5254 23.2407 17.7692 23.3422C18.0129 23.4438 18.2341 23.5925 18.42 23.78L35.62 41H11ZM41 39C40.9981 39.2466 40.9507 39.4907 40.86 39.72C40.8143 39.8175 40.7608 39.9111 40.7 40C40.6465 40.0847 40.5863 40.1649 40.52 40.24L29.82 29.54L31.58 27.78C31.7659 27.5925 31.9871 27.4438 32.2308 27.3422C32.4746 27.2407 32.736 27.1884 33 27.1884C33.264 27.1884 33.5254 27.2407 33.7692 27.3422C34.0129 27.4438 34.2341 27.5925 34.42 27.78L41 34.38V39ZM41 28.72L37.24 25C36.0954 23.914 34.5778 23.3086 33 23.3086C31.4222 23.3086 29.9046 23.914 28.76 25L27 26.76L21.24 21C20.0954 19.914 18.5778 19.3086 17 19.3086C15.4222 19.3086 13.9046 19.914 12.76 21L9 24.72V11C9 10.4696 9.21071 9.96086 9.58579 9.58579C9.96086 9.21071 10.4696 9 11 9H39C39.5304 9 40.0391 9.21071 40.4142 9.58579C40.7893 9.96086 41 10.4696 41 11V28.72Z" fill="#444444"/>
<g clip-path="url(#clip0_191_1236)">
<path d="M38.5 20.125C43.2635 20.125 47.125 16.2635 47.125 11.5C47.125 6.73654 43.2635 2.875 38.5 2.875C33.7365 2.875 29.875 6.73654 29.875 11.5C29.875 16.2635 33.7365 20.125 38.5 20.125Z" stroke="#3FFF62" stroke-width="1.4375" stroke-linecap="round" stroke-linejoin="round"/>
<path d="M38.5 17.25C39.0954 17.25 39.5781 16.7673 39.5781 16.1719C39.5781 15.5764 39.0954 15.0938 38.5 15.0938C37.9046 15.0938 37.4219 15.5764 37.4219 16.1719C37.4219 16.7673 37.9046 17.25 38.5 17.25Z" fill="#3FFF62"/>
<path d="M38.5 12.9379V12.2191C38.9975 12.2191 39.4839 12.0716 39.8976 11.7952C40.3113 11.5187 40.6337 11.1259 40.8241 10.6662C41.0145 10.2065 41.0644 9.7007 40.9673 9.21272C40.8702 8.72473 40.6306 8.27649 40.2788 7.92468C39.927 7.57286 39.4788 7.33327 38.9908 7.2362C38.5028 7.13914 37.997 7.18896 37.5373 7.37936C37.0776 7.56976 36.6848 7.89219 36.4083 8.30589C36.1319 8.71958 35.9844 9.20595 35.9844 9.70349" stroke="#3FFF62" stroke-width="1.4375" stroke-linecap="round" stroke-linejoin="round"/>
</g>
<defs>
<clipPath id="clip0_191_1236">
<rect width="23" height="23" fill="white" transform="translate(27)"/>
</clipPath>
</defs>
</svg>
