<svg width="36" height="40" viewBox="0 0 36 40" fill="none" xmlns="http://www.w3.org/2000/svg">
<mask id="mask0_3_337" style="mask-type:luminance" maskUnits="userSpaceOnUse" x="7" y="0" width="22" height="22">
<path d="M29 0H7V22H29V0Z" fill="white"/>
</mask>
<g mask="url(#mask0_3_337)">
<path d="M21.7967 21.0956H27.2868C27.855 21.0956 28.3146 20.6343 28.3125 20.0661L28.2761 10.2008C28.2747 9.82197 28.0423 9.3115 27.758 9.0616L18.7954 1.18663C18.3685 0.811596 17.6745 0.810222 17.2458 1.18353L8.20244 9.06366C7.91679 9.31253 7.68613 9.82197 7.68751 10.2008L7.72394 20.0661C7.72601 20.6343 8.18904 21.0956 8.75726 21.0956H14.2476C14.8158 21.0956 15.2768 20.6343 15.2768 20.0661V15.6052C15.2768 15.2264 15.5845 14.9191 15.9633 14.9191H20.0811C20.4595 14.9191 20.7672 15.2264 20.7672 15.6052V20.0661C20.7672 20.6343 21.2285 21.0956 21.7967 21.0956Z" fill="white"/>
</g>
<path d="M4.78223 37V29.9297H6.24707V32.8594H9.31348V29.9297H10.7881V37H9.31348V34.0703H6.24707V37H4.78223ZM14.333 37.1074C12.7314 37.1074 11.7354 36.0039 11.7354 34.3633C11.7354 32.7227 12.7314 31.6289 14.333 31.6289C15.9346 31.6289 16.9404 32.7227 16.9404 34.3633C16.9404 36.0039 15.9346 37.1074 14.333 37.1074ZM14.3428 35.9844C15.085 35.9844 15.4658 35.291 15.4658 34.3633C15.4658 33.4258 15.085 32.7324 14.3428 32.7324C13.5908 32.7324 13.2002 33.4258 13.2002 34.3633C13.2002 35.291 13.5908 35.9844 14.3428 35.9844ZM17.8486 37V31.6973H19.2256V32.625H19.2842C19.5088 32.0098 20.0459 31.6289 20.7588 31.6289C21.4912 31.6289 22.0283 32.0098 22.2041 32.625H22.2529C22.4775 32.0195 23.0732 31.6289 23.8545 31.6289C24.8408 31.6289 25.5244 32.2832 25.5244 33.4355V37H24.0791V33.7188C24.0791 33.1133 23.7275 32.8203 23.249 32.8203C22.7021 32.8203 22.3896 33.2012 22.3896 33.7578V37H20.9834V33.6797C20.9834 33.1523 20.6514 32.8203 20.1631 32.8203C19.6748 32.8203 19.2939 33.2109 19.2939 33.8164V37H17.8486ZM29.04 37.1074C27.4189 37.1074 26.4229 36.0527 26.4229 34.373C26.4229 32.7324 27.4287 31.6289 28.9814 31.6289C30.3779 31.6289 31.4717 32.5078 31.4717 34.3145V34.7246H27.8486C27.8486 35.5254 28.3271 36.0234 29.0693 36.0234C29.5576 36.0234 29.9092 35.8086 30.0557 35.4863H31.4326C31.2275 36.4629 30.3486 37.1074 29.04 37.1074ZM27.8486 33.8164H30.1045C30.1045 33.1719 29.6553 32.7129 29.0107 32.7129C28.3467 32.7129 27.873 33.2061 27.8486 33.8164Z" fill="white"/>
</svg>
