<svg width="36" height="37" viewBox="0 0 36 37" fill="none" xmlns="http://www.w3.org/2000/svg">
<path d="M16.5666 18.357C16.3213 18.357 16.086 18.2586 15.9125 18.0834C15.7391 17.9083 15.6416 17.6708 15.6416 17.4231V11.5337C15.6422 11.3662 15.6873 11.2021 15.7723 11.0583C15.8573 10.9145 15.979 10.7965 16.1247 10.7165C16.2703 10.6365 16.4346 10.5975 16.6003 10.6036C16.7661 10.6097 16.9271 10.6607 17.0666 10.7512L21.5999 13.7043C21.7289 13.7892 21.8349 13.9052 21.9082 14.0418C21.9815 14.1784 22.02 14.3314 22.02 14.4868C22.02 14.6422 21.9815 14.7951 21.9082 14.9318C21.8349 15.0684 21.7289 15.1844 21.5999 15.2692L17.0666 18.2139C16.9167 18.3085 16.7433 18.3581 16.5666 18.357ZM17.3083 12.9051V16.0517L19.7249 14.4784L17.3083 12.9051Z" fill="#A0A0A0"/>
<path d="M27.875 22H8.125C7.42881 22 6.76113 21.7208 6.26884 21.2238C5.77656 20.7267 5.5 20.0526 5.5 19.3497V6.85576H30.5V19.3497C30.5 20.0526 30.2234 20.7267 29.7312 21.2238C29.2389 21.7208 28.5712 22 27.875 22ZM7.16667 8.53845V19.3497C7.16667 19.6064 7.26763 19.8525 7.44736 20.0339C7.62708 20.2154 7.87083 20.3173 8.125 20.3173H27.875C28.1292 20.3173 28.3729 20.2154 28.5526 20.0339C28.7324 19.8525 28.8333 19.6064 28.8333 19.3497V8.53845H7.16667Z" fill="#A0A0A0"/>
<path d="M30.5 8.53846H5.5V2.77524C5.5 2.07235 5.77656 1.39825 6.26884 0.901237C6.76113 0.404221 7.42881 0.125 8.125 0.125H27.875C28.5712 0.125 29.2389 0.404221 29.7312 0.901237C30.2234 1.39825 30.5 2.07235 30.5 2.77524V8.53846ZM7.16667 6.85577H28.8333V2.77524C28.8333 2.51863 28.7324 2.27253 28.5526 2.09108C28.3729 1.90963 28.1292 1.80769 27.875 1.80769H8.125C7.87083 1.80769 7.62708 1.90963 7.44736 2.09108C7.26763 2.27253 7.16667 2.51863 7.16667 2.77524V6.85577Z" fill="#A0A0A0"/>
<path d="M17.9331 8.07572L16.4414 7.31851L17.9247 4.33173L16.4414 1.34495L17.9331 0.587738L19.7831 4.33173L17.9331 8.07572Z" fill="#A0A0A0"/>
<path d="M11.0835 8.07572L9.5918 7.31851L11.0751 4.33173L9.5918 1.34495L11.0835 0.587738L12.9335 4.33173L11.0835 8.07572Z" fill="#A0A0A0"/>
<path d="M24.6001 8.07572L23.1084 7.31851L24.5917 4.33173L23.1084 1.34495L24.6001 0.587738L26.4501 4.33173L24.6001 8.07572Z" fill="#A0A0A0"/>
<path d="M4.35254 28.9297H6.16895L8.13184 33.7246H8.20996L10.1729 28.9297H11.9893V36H10.5635V31.3711H10.5049L8.65918 35.9707H7.68262L5.83691 31.3516H5.77832V36H4.35254V28.9297ZM15.5342 36.1074C13.9326 36.1074 12.9365 35.0039 12.9365 33.3633C12.9365 31.7227 13.9326 30.6289 15.5342 30.6289C17.1357 30.6289 18.1416 31.7227 18.1416 33.3633C18.1416 35.0039 17.1357 36.1074 15.5342 36.1074ZM15.5439 34.9844C16.2861 34.9844 16.667 34.291 16.667 33.3633C16.667 32.4258 16.2861 31.7324 15.5439 31.7324C14.792 31.7324 14.4014 32.4258 14.4014 33.3633C14.4014 34.291 14.792 34.9844 15.5439 34.9844ZM23.7959 30.6973L21.9307 36H20.3096L18.4541 30.6973H19.9775L21.0908 34.5059H21.1494L22.2627 30.6973H23.7959ZM24.499 36V30.6973H25.9443V36H24.499ZM25.2217 30.0039C24.7822 30.0039 24.4307 29.6719 24.4307 29.2715C24.4307 28.8613 24.7822 28.5293 25.2217 28.5293C25.6514 28.5293 26.0029 28.8613 26.0029 29.2715C26.0029 29.6719 25.6514 30.0039 25.2217 30.0039ZM29.4697 36.1074C27.8486 36.1074 26.8525 35.0527 26.8525 33.373C26.8525 31.7324 27.8584 30.6289 29.4111 30.6289C30.8076 30.6289 31.9014 31.5078 31.9014 33.3145V33.7246H28.2783C28.2783 34.5254 28.7568 35.0234 29.499 35.0234C29.9873 35.0234 30.3389 34.8086 30.4854 34.4863H31.8623C31.6572 35.4629 30.7783 36.1074 29.4697 36.1074ZM28.2783 32.8164H30.5342C30.5342 32.1719 30.085 31.7129 29.4404 31.7129C28.7764 31.7129 28.3027 32.2061 28.2783 32.8164Z" fill="#A0A0A0"/>
</svg>
