<svg width="36" height="40" viewBox="0 0 36 40" fill="none" xmlns="http://www.w3.org/2000/svg">
<g clip-path="url(#clip0_3_383)">
<path d="M15.7188 18.8397C10.9654 18.8397 7.09814 14.9724 7.09814 10.219C7.09814 5.46552 10.9654 1.59828 15.7188 1.59828C20.4723 1.59828 24.3395 5.46552 24.3395 10.219C24.3395 14.9724 20.4723 18.8397 15.7188 18.8397ZM15.7188 3.32242C11.9162 3.32242 8.82228 6.41639 8.82228 10.219C8.82228 14.0216 11.9162 17.1155 15.7188 17.1155C19.5214 17.1155 22.6154 14.0216 22.6154 10.219C22.6154 6.41639 19.5223 3.32242 15.7188 3.32242Z" fill="#A0A0A0"/>
<path d="M28.0396 23.4017C27.9264 23.4018 27.8143 23.3796 27.7097 23.3362C27.6051 23.2929 27.5101 23.2293 27.4301 23.1491L20.7974 16.5164C20.7173 16.4363 20.6538 16.3413 20.6105 16.2367C20.5672 16.1322 20.5449 16.0201 20.5449 15.9069C20.5449 15.7937 20.5672 15.6816 20.6105 15.577C20.6538 15.4725 20.7173 15.3774 20.7974 15.2974C20.8774 15.2174 20.9724 15.1539 21.077 15.1106C21.1816 15.0672 21.2937 15.045 21.4069 15.045C21.5201 15.045 21.6321 15.0672 21.7367 15.1106C21.8413 15.1539 21.9363 15.2174 22.0163 15.2974L28.6491 21.9302C28.7701 22.0506 28.8525 22.2042 28.886 22.3715C28.9195 22.5389 28.9025 22.7124 28.8372 22.8701C28.7719 23.0277 28.6612 23.1624 28.5192 23.2571C28.3772 23.3518 28.2103 23.4021 28.0396 23.4017Z" fill="#A0A0A0"/>
<path d="M5.94434 33.9512C5.88574 33.3945 5.43652 33.0625 4.72363 33.0625C3.98145 33.0625 3.57129 33.4043 3.56152 33.873C3.55176 34.3809 4.08887 34.6152 4.69434 34.752L5.3291 34.9082C6.54004 35.1816 7.44824 35.7969 7.44824 36.9785C7.44824 38.2773 6.43262 39.0977 4.71387 39.0977C3.00488 39.0977 1.91113 38.3066 1.87207 36.793H3.29785C3.34668 37.5059 3.91309 37.8672 4.69434 37.8672C5.46582 37.8672 5.96387 37.5059 5.96387 36.9785C5.96387 36.5 5.52441 36.2754 4.75293 36.0801L3.98145 35.8945C2.79004 35.6016 2.05762 35.0059 2.05762 33.9707C2.05762 32.6816 3.19043 31.832 4.7334 31.832C6.2959 31.832 7.33105 32.7012 7.35059 33.9512H5.94434ZM10.7783 39.1074C9.15723 39.1074 8.16113 38.0527 8.16113 36.373C8.16113 34.7324 9.16699 33.6289 10.7197 33.6289C12.1162 33.6289 13.21 34.5078 13.21 36.3145V36.7246H9.58691C9.58691 37.5254 10.0654 38.0234 10.8076 38.0234C11.2959 38.0234 11.6475 37.8086 11.7939 37.4863H13.1709C12.9658 38.4629 12.0869 39.1074 10.7783 39.1074ZM9.58691 35.8164H11.8428C11.8428 35.1719 11.3936 34.7129 10.749 34.7129C10.085 34.7129 9.61133 35.2061 9.58691 35.8164ZM13.8643 37.5156C13.8643 36.334 14.8213 35.9434 15.8369 35.8848C16.2178 35.8604 16.9307 35.8262 17.1553 35.8164V35.3867C17.1455 34.9473 16.8428 34.6836 16.3057 34.6836C15.8174 34.6836 15.5049 34.9082 15.4268 35.2695H14.0498C14.1377 34.3516 14.9385 33.6289 16.3447 33.6289C17.4971 33.6289 18.5908 34.1465 18.5908 35.4258V39H17.2236V38.2676H17.1846C16.9209 38.7559 16.4229 39.0977 15.6318 39.0977C14.6162 39.0977 13.8643 38.5703 13.8643 37.5156ZM15.251 37.4766C15.251 37.8867 15.583 38.1016 16.042 38.1016C16.6963 38.1016 17.165 37.6621 17.1553 37.1055V36.7148C16.9355 36.7246 16.3203 36.7588 16.0713 36.7832C15.5732 36.832 15.251 37.0664 15.251 37.4766ZM19.6943 39V33.6973H21.0908V34.6152H21.1494C21.3447 33.9609 21.833 33.6191 22.4287 33.6191C22.5752 33.6191 22.7607 33.6387 22.8877 33.668V34.957C22.751 34.918 22.4775 34.8789 22.2725 34.8789C21.6182 34.8789 21.1396 35.3379 21.1396 35.9824V39H19.6943ZM25.8076 39.1074C24.1865 39.1074 23.21 37.9844 23.21 36.3633C23.21 34.7422 24.1963 33.6289 25.8076 33.6289C27.1748 33.6289 28.1025 34.4297 28.1611 35.6406H26.8037C26.7158 35.1133 26.374 34.752 25.8271 34.752C25.1338 34.752 24.6748 35.3379 24.6748 36.3438C24.6748 37.3691 25.124 37.9551 25.8271 37.9551C26.335 37.9551 26.7158 37.6426 26.8037 37.0762H28.1611C28.0928 38.2773 27.2139 39.1074 25.8076 39.1074ZM30.5049 35.9336V39H29.0596V31.9297H30.4658V34.625H30.5244C30.7686 34.0098 31.3057 33.6289 32.1064 33.6289C33.21 33.6289 33.9424 34.3711 33.9424 35.6211V39H32.4971V35.875C32.4971 35.2207 32.1455 34.8301 31.54 34.8301C30.9346 34.8301 30.5049 35.2305 30.5049 35.9336Z" fill="#A0A0A0"/>
</g>
<defs>
<clipPath id="clip0_3_383">
<rect width="36" height="40" fill="white"/>
</clipPath>
</defs>
</svg>
