<svg width="36" height="40" viewBox="0 0 36 40" fill="none" xmlns="http://www.w3.org/2000/svg">
<path d="M26.3333 5.00409H21.3472L24.5417 2.14218C24.6712 2.02565 24.7739 1.88732 24.844 1.73507C24.9141 1.58282 24.9501 1.41965 24.9501 1.25486C24.9501 1.09007 24.9141 0.926891 24.844 0.774644C24.7739 0.622398 24.6712 0.484064 24.5417 0.367539C24.4122 0.251015 24.2584 0.158583 24.0892 0.0955203C23.92 0.0324578 23.7387 0 23.5556 0C23.1857 0 22.831 0.132208 22.5694 0.367539L18 4.42921L16.375 1.92972C16.2838 1.78694 16.1622 1.66171 16.0173 1.5612C15.8723 1.46069 15.7067 1.38686 15.53 1.34392C15.3534 1.30098 15.169 1.28978 14.9875 1.31095C14.806 1.33212 14.6309 1.38525 14.4722 1.46731C14.3135 1.54937 14.1744 1.65875 14.0627 1.78921C13.951 1.91966 13.8689 2.06863 13.8212 2.22762C13.7735 2.38661 13.761 2.5525 13.7846 2.71582C13.8081 2.87913 13.8671 3.03668 13.9583 3.17946L15.2222 5.00409H9.66667C8.5616 5.00409 7.50179 5.3991 6.72039 6.10222C5.93899 6.80533 5.5 7.75897 5.5 8.75332V18.7513C5.5 19.7456 5.93899 20.6993 6.72039 21.4024C7.50179 22.1055 8.5616 22.5005 9.66667 22.5005V23.7503C9.66667 24.0817 9.813 24.3996 10.0735 24.634C10.3339 24.8683 10.6872 25 11.0556 25C11.4239 25 11.7772 24.8683 12.0376 24.634C12.2981 24.3996 12.4444 24.0817 12.4444 23.7503V22.5005H23.5556V23.7503C23.5556 24.0817 23.7019 24.3996 23.9624 24.634C24.2228 24.8683 24.5761 25 24.9444 25C25.3128 25 25.6661 24.8683 25.9265 24.634C26.187 24.3996 26.3333 24.0817 26.3333 23.7503V22.5005C27.4384 22.5005 28.4982 22.1055 29.2796 21.4024C30.061 20.6993 30.5 19.7456 30.5 18.7513V8.75332C30.5 7.75897 30.061 6.80533 29.2796 6.10222C28.4982 5.3991 27.4384 5.00409 26.3333 5.00409ZM27.7222 18.7513C27.7222 19.0827 27.5759 19.4006 27.3154 19.635C27.055 19.8694 26.7017 20.001 26.3333 20.001H9.66667C9.29831 20.001 8.94504 19.8694 8.68457 19.635C8.42411 19.4006 8.27778 19.0827 8.27778 18.7513V8.75332C8.27778 8.42187 8.42411 8.10399 8.68457 7.86962C8.94504 7.63525 9.29831 7.50358 9.66667 7.50358H26.3333C26.7017 7.50358 27.055 7.63525 27.3154 7.86962C27.5759 8.10399 27.7222 8.42187 27.7222 8.75332V18.7513Z" fill="#3FFF62"/>
<path d="M11.5205 33.1406V31.9297H17.3115V33.1406H15.1436V39H13.6885V33.1406H11.5205ZM19.46 31.9297L21.1787 37.3203H21.2471L22.9756 31.9297H24.5967L22.1553 39H20.2705L17.8193 31.9297H19.46Z" fill="#3FFF62"/>
</svg>
