<svg width="25" height="26" viewBox="0 0 25 26" fill="none" xmlns="http://www.w3.org/2000/svg">
<path d="M10.2188 19.3397C5.46539 19.3397 1.59814 15.4724 1.59814 10.719C1.59814 5.96552 5.46539 2.09827 10.2188 2.09827C14.9723 2.09827 18.8395 5.96552 18.8395 10.719C18.8395 15.4724 14.9723 19.3397 10.2188 19.3397ZM10.2188 3.82241C6.41625 3.82241 3.32228 6.91638 3.32228 10.719C3.32228 14.5215 6.41625 17.6155 10.2188 17.6155C14.0214 17.6155 17.1154 14.5215 17.1154 10.719C17.1154 6.91638 14.0223 3.82241 10.2188 3.82241Z" fill="#444444"/>
<path d="M22.5396 23.9017C22.4264 23.9018 22.3143 23.8796 22.2097 23.8362C22.1051 23.7929 22.0101 23.7293 21.9301 23.6491L15.2974 17.0164C15.2173 16.9363 15.1538 16.8413 15.1105 16.7367C15.0672 16.6322 15.0449 16.5201 15.0449 16.4069C15.0449 16.2937 15.0672 16.1816 15.1105 16.077C15.1538 15.9725 15.2173 15.8775 15.2974 15.7974C15.3774 15.7174 15.4724 15.6539 15.577 15.6106C15.6816 15.5673 15.7937 15.545 15.9069 15.545C16.0201 15.545 16.1321 15.5673 16.2367 15.6106C16.3413 15.6539 16.4363 15.7174 16.5163 15.7974L23.1491 22.4302C23.2701 22.5506 23.3525 22.7042 23.386 22.8715C23.4195 23.0389 23.4025 23.2124 23.3372 23.3701C23.2719 23.5277 23.1612 23.6625 23.0192 23.7571C22.8772 23.8518 22.7103 23.9021 22.5396 23.9017Z" fill="#444444"/>
</svg>
